<mxfile host="app.diagrams.net" modified="2020-07-29T02:46:11.674Z" agent="5.0 (Macintosh; Intel Mac OS X 10_15_5) AppleWebKit/537.36 (KHTML, like Gecko) Chrome/84.0.4147.89 Safari/537.36" etag="Epd-q7haupIsDcX700wr" version="13.5.4" type="github">
  <diagram id="_ENc8ea7q0bIa4rcxyxo" name="Page-1">
    <mxGraphModel dx="746" dy="971" grid="1" gridSize="10" guides="1" tooltips="1" connect="1" arrows="1" fold="1" page="1" pageScale="1" pageWidth="827" pageHeight="1169" math="0" shadow="0">
      <root>
        <mxCell id="0" />
        <mxCell id="1" parent="0" />
        <mxCell id="VQRGFevOgvW-jtlJBOQA-1" value="" style="shape=table;html=1;whiteSpace=wrap;startSize=0;container=1;collapsible=0;childLayout=tableLayout;" vertex="1" parent="1">
          <mxGeometry x="190" y="220" width="453" height="200" as="geometry" />
        </mxCell>
        <mxCell id="VQRGFevOgvW-jtlJBOQA-2" value="" style="shape=partialRectangle;html=1;whiteSpace=wrap;collapsible=0;dropTarget=0;pointerEvents=0;fillColor=none;top=0;left=0;bottom=0;right=0;points=[[0,0.5],[1,0.5]];portConstraint=eastwest;" vertex="1" parent="VQRGFevOgvW-jtlJBOQA-1">
          <mxGeometry width="453" height="40" as="geometry" />
        </mxCell>
        <mxCell id="VQRGFevOgvW-jtlJBOQA-3" value="Process" style="shape=partialRectangle;html=1;whiteSpace=wrap;connectable=0;overflow=hidden;fillColor=none;top=0;left=0;bottom=0;right=0;" vertex="1" parent="VQRGFevOgvW-jtlJBOQA-2">
          <mxGeometry width="113" height="40" as="geometry" />
        </mxCell>
        <mxCell id="VQRGFevOgvW-jtlJBOQA-4" value="Arrival Time" style="shape=partialRectangle;html=1;whiteSpace=wrap;connectable=0;overflow=hidden;fillColor=none;top=0;left=0;bottom=0;right=0;" vertex="1" parent="VQRGFevOgvW-jtlJBOQA-2">
          <mxGeometry x="113" width="114" height="40" as="geometry" />
        </mxCell>
        <mxCell id="VQRGFevOgvW-jtlJBOQA-5" value="Burst&lt;br&gt;Time" style="shape=partialRectangle;html=1;whiteSpace=wrap;connectable=0;overflow=hidden;fillColor=none;top=0;left=0;bottom=0;right=0;" vertex="1" parent="VQRGFevOgvW-jtlJBOQA-2">
          <mxGeometry x="227" width="113" height="40" as="geometry" />
        </mxCell>
        <mxCell id="VQRGFevOgvW-jtlJBOQA-22" value="Priority" style="shape=partialRectangle;html=1;whiteSpace=wrap;connectable=0;overflow=hidden;fillColor=none;top=0;left=0;bottom=0;right=0;" vertex="1" parent="VQRGFevOgvW-jtlJBOQA-2">
          <mxGeometry x="340" width="113" height="40" as="geometry" />
        </mxCell>
        <mxCell id="VQRGFevOgvW-jtlJBOQA-6" value="" style="shape=partialRectangle;html=1;whiteSpace=wrap;collapsible=0;dropTarget=0;pointerEvents=0;fillColor=none;top=0;left=0;bottom=0;right=0;points=[[0,0.5],[1,0.5]];portConstraint=eastwest;" vertex="1" parent="VQRGFevOgvW-jtlJBOQA-1">
          <mxGeometry y="40" width="453" height="40" as="geometry" />
        </mxCell>
        <mxCell id="VQRGFevOgvW-jtlJBOQA-7" value="P1" style="shape=partialRectangle;html=1;whiteSpace=wrap;connectable=0;overflow=hidden;fillColor=#fff2cc;top=0;left=0;bottom=0;right=0;strokeColor=#d6b656;" vertex="1" parent="VQRGFevOgvW-jtlJBOQA-6">
          <mxGeometry width="113" height="40" as="geometry" />
        </mxCell>
        <mxCell id="VQRGFevOgvW-jtlJBOQA-8" value="0" style="shape=partialRectangle;html=1;whiteSpace=wrap;connectable=0;overflow=hidden;fillColor=#fff2cc;top=0;left=0;bottom=0;right=0;strokeColor=#d6b656;" vertex="1" parent="VQRGFevOgvW-jtlJBOQA-6">
          <mxGeometry x="113" width="114" height="40" as="geometry" />
        </mxCell>
        <mxCell id="VQRGFevOgvW-jtlJBOQA-9" value="8" style="shape=partialRectangle;html=1;whiteSpace=wrap;connectable=0;overflow=hidden;fillColor=#fff2cc;top=0;left=0;bottom=0;right=0;strokeColor=#d6b656;" vertex="1" parent="VQRGFevOgvW-jtlJBOQA-6">
          <mxGeometry x="227" width="113" height="40" as="geometry" />
        </mxCell>
        <mxCell id="VQRGFevOgvW-jtlJBOQA-23" value="1" style="shape=partialRectangle;html=1;whiteSpace=wrap;connectable=0;overflow=hidden;fillColor=#fff2cc;top=0;left=0;bottom=0;right=0;strokeColor=#d6b656;" vertex="1" parent="VQRGFevOgvW-jtlJBOQA-6">
          <mxGeometry x="340" width="113" height="40" as="geometry" />
        </mxCell>
        <mxCell id="VQRGFevOgvW-jtlJBOQA-10" value="" style="shape=partialRectangle;html=1;whiteSpace=wrap;collapsible=0;dropTarget=0;pointerEvents=0;fillColor=none;top=0;left=0;bottom=0;right=0;points=[[0,0.5],[1,0.5]];portConstraint=eastwest;" vertex="1" parent="VQRGFevOgvW-jtlJBOQA-1">
          <mxGeometry y="80" width="453" height="40" as="geometry" />
        </mxCell>
        <mxCell id="VQRGFevOgvW-jtlJBOQA-11" value="P2" style="shape=partialRectangle;html=1;whiteSpace=wrap;connectable=0;overflow=hidden;fillColor=#f8cecc;top=0;left=0;bottom=0;right=0;strokeColor=#b85450;" vertex="1" parent="VQRGFevOgvW-jtlJBOQA-10">
          <mxGeometry width="113" height="40" as="geometry" />
        </mxCell>
        <mxCell id="VQRGFevOgvW-jtlJBOQA-12" value="2" style="shape=partialRectangle;html=1;whiteSpace=wrap;connectable=0;overflow=hidden;fillColor=#f8cecc;top=0;left=0;bottom=0;right=0;strokeColor=#b85450;" vertex="1" parent="VQRGFevOgvW-jtlJBOQA-10">
          <mxGeometry x="113" width="114" height="40" as="geometry" />
        </mxCell>
        <mxCell id="VQRGFevOgvW-jtlJBOQA-13" value="4" style="shape=partialRectangle;html=1;whiteSpace=wrap;connectable=0;overflow=hidden;fillColor=#f8cecc;top=0;left=0;bottom=0;right=0;strokeColor=#b85450;" vertex="1" parent="VQRGFevOgvW-jtlJBOQA-10">
          <mxGeometry x="227" width="113" height="40" as="geometry" />
        </mxCell>
        <mxCell id="VQRGFevOgvW-jtlJBOQA-24" value="1" style="shape=partialRectangle;html=1;whiteSpace=wrap;connectable=0;overflow=hidden;fillColor=#f8cecc;top=0;left=0;bottom=0;right=0;strokeColor=#b85450;" vertex="1" parent="VQRGFevOgvW-jtlJBOQA-10">
          <mxGeometry x="340" width="113" height="40" as="geometry" />
        </mxCell>
        <mxCell id="VQRGFevOgvW-jtlJBOQA-14" value="" style="shape=partialRectangle;html=1;whiteSpace=wrap;collapsible=0;dropTarget=0;pointerEvents=0;fillColor=none;top=0;left=0;bottom=0;right=0;points=[[0,0.5],[1,0.5]];portConstraint=eastwest;" vertex="1" parent="VQRGFevOgvW-jtlJBOQA-1">
          <mxGeometry y="120" width="453" height="40" as="geometry" />
        </mxCell>
        <mxCell id="VQRGFevOgvW-jtlJBOQA-15" value="P3" style="shape=partialRectangle;html=1;whiteSpace=wrap;connectable=0;overflow=hidden;fillColor=#e1d5e7;top=0;left=0;bottom=0;right=0;strokeColor=#9673a6;" vertex="1" parent="VQRGFevOgvW-jtlJBOQA-14">
          <mxGeometry width="113" height="40" as="geometry" />
        </mxCell>
        <mxCell id="VQRGFevOgvW-jtlJBOQA-16" value="3" style="shape=partialRectangle;html=1;whiteSpace=wrap;connectable=0;overflow=hidden;fillColor=#e1d5e7;top=0;left=0;bottom=0;right=0;strokeColor=#9673a6;" vertex="1" parent="VQRGFevOgvW-jtlJBOQA-14">
          <mxGeometry x="113" width="114" height="40" as="geometry" />
        </mxCell>
        <mxCell id="VQRGFevOgvW-jtlJBOQA-17" value="2" style="shape=partialRectangle;html=1;whiteSpace=wrap;connectable=0;overflow=hidden;fillColor=#e1d5e7;top=0;left=0;bottom=0;right=0;strokeColor=#9673a6;" vertex="1" parent="VQRGFevOgvW-jtlJBOQA-14">
          <mxGeometry x="227" width="113" height="40" as="geometry" />
        </mxCell>
        <mxCell id="VQRGFevOgvW-jtlJBOQA-25" value="1" style="shape=partialRectangle;html=1;whiteSpace=wrap;connectable=0;overflow=hidden;fillColor=#e1d5e7;top=0;left=0;bottom=0;right=0;strokeColor=#9673a6;" vertex="1" parent="VQRGFevOgvW-jtlJBOQA-14">
          <mxGeometry x="340" width="113" height="40" as="geometry" />
        </mxCell>
        <mxCell id="VQRGFevOgvW-jtlJBOQA-18" value="" style="shape=partialRectangle;html=1;whiteSpace=wrap;collapsible=0;dropTarget=0;pointerEvents=0;fillColor=none;top=0;left=0;bottom=0;right=0;points=[[0,0.5],[1,0.5]];portConstraint=eastwest;" vertex="1" parent="VQRGFevOgvW-jtlJBOQA-1">
          <mxGeometry y="160" width="453" height="40" as="geometry" />
        </mxCell>
        <mxCell id="VQRGFevOgvW-jtlJBOQA-19" value="P4" style="shape=partialRectangle;html=1;whiteSpace=wrap;connectable=0;overflow=hidden;fillColor=#dae8fc;top=0;left=0;bottom=0;right=0;strokeColor=#6c8ebf;" vertex="1" parent="VQRGFevOgvW-jtlJBOQA-18">
          <mxGeometry width="113" height="40" as="geometry" />
        </mxCell>
        <mxCell id="VQRGFevOgvW-jtlJBOQA-20" value="9" style="shape=partialRectangle;html=1;whiteSpace=wrap;connectable=0;overflow=hidden;fillColor=#dae8fc;top=0;left=0;bottom=0;right=0;strokeColor=#6c8ebf;" vertex="1" parent="VQRGFevOgvW-jtlJBOQA-18">
          <mxGeometry x="113" width="114" height="40" as="geometry" />
        </mxCell>
        <mxCell id="VQRGFevOgvW-jtlJBOQA-21" value="1" style="shape=partialRectangle;html=1;whiteSpace=wrap;connectable=0;overflow=hidden;fillColor=#dae8fc;top=0;left=0;bottom=0;right=0;strokeColor=#6c8ebf;" vertex="1" parent="VQRGFevOgvW-jtlJBOQA-18">
          <mxGeometry x="227" width="113" height="40" as="geometry" />
        </mxCell>
        <mxCell id="VQRGFevOgvW-jtlJBOQA-26" value="1" style="shape=partialRectangle;html=1;whiteSpace=wrap;connectable=0;overflow=hidden;fillColor=#dae8fc;top=0;left=0;bottom=0;right=0;strokeColor=#6c8ebf;" vertex="1" parent="VQRGFevOgvW-jtlJBOQA-18">
          <mxGeometry x="340" width="113" height="40" as="geometry" />
        </mxCell>
      </root>
    </mxGraphModel>
  </diagram>
</mxfile>
